<?xml version="1.0" encoding="UTF-8" standalone="no"?>
<!DOCTYPE svg PUBLIC "-//W3C//DTD SVG 1.1//EN" "http://www.w3.org/Graphics/SVG/1.1/DTD/svg11.dtd">
<svg width="100%" height="100%" viewBox="0 0 2000 2000" version="1.1" xmlns="http://www.w3.org/2000/svg" xmlns:xlink="http://www.w3.org/1999/xlink" xml:space="preserve" xmlns:serif="http://www.serif.com/" style="fill-rule:evenodd;clip-rule:evenodd;stroke-linejoin:round;stroke-miterlimit:2;">
    <g transform="matrix(1,0,0,1,155.019,-660.737)">
        <g transform="matrix(208.333,0,0,208.333,165.184,1021.6)">
            <path d="M0.237,0.33C0.191,0.33 0.148,0.323 0.107,0.308C0.057,0.289 0.017,0.254 -0.015,0.201C-0.031,0.172 -0.041,0.145 -0.042,0.122C-0.044,0.099 -0.045,0.081 -0.045,0.07C-0.045,0.007 -0.029,-0.059 0.004,-0.128C0.024,-0.17 0.047,-0.21 0.073,-0.247C0.096,-0.279 0.119,-0.311 0.144,-0.342C0.151,-0.35 0.154,-0.356 0.154,-0.36C0.154,-0.362 0.151,-0.364 0.146,-0.364C0.141,-0.364 0.134,-0.363 0.125,-0.361C0.058,-0.343 0.001,-0.334 -0.047,-0.334C-0.11,-0.334 -0.144,-0.358 -0.149,-0.405C-0.149,-0.428 -0.14,-0.444 -0.121,-0.454C-0.103,-0.463 -0.081,-0.469 -0.057,-0.471C-0.032,-0.473 -0.008,-0.474 0.015,-0.474C0.044,-0.474 0.07,-0.476 0.092,-0.479C0.132,-0.484 0.172,-0.491 0.212,-0.499C0.222,-0.501 0.232,-0.502 0.24,-0.502C0.252,-0.503 0.264,-0.506 0.275,-0.509C0.286,-0.512 0.297,-0.52 0.31,-0.532C0.329,-0.554 0.35,-0.576 0.372,-0.596L0.44,-0.661C0.523,-0.739 0.607,-0.817 0.692,-0.894C0.777,-0.97 0.864,-1.044 0.955,-1.115C0.965,-1.122 0.973,-1.129 0.979,-1.136C0.985,-1.142 0.992,-1.151 0.998,-1.162C0.996,-1.168 0.982,-1.171 0.958,-1.171C0.913,-1.169 0.79,-1.168 0.589,-1.168C0.437,-1.168 0.342,-1.168 0.306,-1.166C0.291,-1.165 0.275,-1.165 0.258,-1.165L0.218,-1.166C0.186,-1.167 0.163,-1.173 0.149,-1.183C0.134,-1.198 0.126,-1.216 0.126,-1.239C0.126,-1.273 0.143,-1.291 0.178,-1.295L0.199,-1.295C0.222,-1.295 0.248,-1.294 0.275,-1.292C0.292,-1.29 0.309,-1.289 0.324,-1.289C0.48,-1.283 0.616,-1.28 0.733,-1.279C0.849,-1.279 0.986,-1.278 1.141,-1.278C1.302,-1.28 1.423,-1.28 1.506,-1.28C1.699,-1.28 1.893,-1.278 2.086,-1.273C2.111,-1.273 2.134,-1.271 2.157,-1.268C2.21,-1.26 2.237,-1.231 2.24,-1.182C2.24,-1.151 2.227,-1.136 2.201,-1.136C2.194,-1.136 2.186,-1.137 2.177,-1.14C2.146,-1.15 2.118,-1.155 2.091,-1.157C2.064,-1.159 2.024,-1.16 1.969,-1.161C1.754,-1.165 1.521,-1.167 1.269,-1.167C1.256,-1.167 1.242,-1.167 1.229,-1.166C1.213,-1.164 1.197,-1.159 1.183,-1.151C1.167,-1.138 1.152,-1.125 1.138,-1.112C1.112,-1.089 1.085,-1.066 1.055,-1.044C0.961,-0.974 0.872,-0.901 0.786,-0.823C0.7,-0.746 0.615,-0.667 0.532,-0.586C0.514,-0.569 0.504,-0.558 0.504,-0.553C0.504,-0.551 0.507,-0.55 0.514,-0.55C0.521,-0.55 0.532,-0.551 0.548,-0.555C0.625,-0.569 0.705,-0.582 0.789,-0.595C0.878,-0.608 0.963,-0.616 1.043,-0.619C1.098,-0.619 1.125,-0.606 1.125,-0.579C1.125,-0.571 1.123,-0.562 1.118,-0.551C1.103,-0.519 1.066,-0.5 1.007,-0.493C0.982,-0.49 0.958,-0.488 0.936,-0.487C0.923,-0.486 0.911,-0.485 0.9,-0.484C0.732,-0.467 0.565,-0.442 0.399,-0.408C0.377,-0.404 0.36,-0.398 0.348,-0.39C0.339,-0.383 0.324,-0.368 0.303,-0.345C0.27,-0.309 0.234,-0.264 0.195,-0.21C0.156,-0.156 0.125,-0.102 0.1,-0.048C0.076,0.007 0.063,0.055 0.063,0.099C0.063,0.144 0.081,0.177 0.115,0.198C0.143,0.214 0.172,0.223 0.204,0.223C0.263,0.223 0.362,0.202 0.5,0.16C0.56,0.142 0.633,0.119 0.719,0.09C0.812,0.059 0.906,0.029 1.001,0C1.097,-0.028 1.192,-0.05 1.287,-0.065C1.3,-0.067 1.316,-0.068 1.334,-0.068C1.411,-0.068 1.451,-0.048 1.456,-0.008C1.456,0.014 1.432,0.03 1.385,0.038C1.371,0.041 1.346,0.044 1.31,0.049C1.232,0.062 1.151,0.081 1.067,0.105C0.984,0.129 0.895,0.157 0.801,0.188C0.541,0.276 0.374,0.322 0.301,0.327C0.268,0.329 0.246,0.33 0.237,0.33Z" style="fill-rule:nonzero;"/>
        </g>
        <g transform="matrix(208.333,0,0,208.333,480.431,1021.6)">
            <path d="M-0.187,0.307C-0.197,0.307 -0.21,0.3 -0.224,0.285C-0.235,0.269 -0.241,0.252 -0.241,0.234C-0.241,0.227 -0.24,0.219 -0.238,0.211C-0.227,0.17 -0.199,0.124 -0.153,0.072C-0.116,0.031 -0.078,-0.008 -0.039,-0.044L-0.005,-0.078C0.012,-0.096 0.021,-0.108 0.022,-0.114C0.022,-0.12 0.022,-0.124 0.022,-0.125C0.022,-0.135 0.02,-0.146 0.015,-0.157C0.01,-0.168 0.006,-0.182 0.001,-0.199C-0.001,-0.213 -0.004,-0.233 -0.006,-0.257C-0.008,-0.281 -0.009,-0.302 -0.009,-0.32C-0.009,-0.331 -0.009,-0.342 -0.008,-0.354C-0.007,-0.382 -0.002,-0.402 0.007,-0.413C0.016,-0.42 0.025,-0.423 0.034,-0.423C0.037,-0.423 0.041,-0.423 0.045,-0.421C0.057,-0.417 0.069,-0.41 0.079,-0.399C0.096,-0.381 0.105,-0.363 0.106,-0.347C0.107,-0.332 0.108,-0.32 0.108,-0.312C0.108,-0.297 0.107,-0.283 0.105,-0.27C0.103,-0.258 0.103,-0.247 0.103,-0.238L0.103,-0.229C0.104,-0.216 0.109,-0.209 0.12,-0.208C0.133,-0.208 0.159,-0.226 0.199,-0.262L0.212,-0.275C0.28,-0.332 0.351,-0.383 0.424,-0.43C0.446,-0.445 0.462,-0.453 0.472,-0.455C0.483,-0.456 0.488,-0.457 0.49,-0.457C0.507,-0.457 0.524,-0.445 0.541,-0.421C0.549,-0.406 0.553,-0.393 0.553,-0.381C0.553,-0.361 0.534,-0.339 0.496,-0.316C0.492,-0.313 0.482,-0.307 0.466,-0.298C0.387,-0.249 0.326,-0.21 0.286,-0.182C0.215,-0.132 0.18,-0.099 0.18,-0.082C0.18,-0.081 0.18,-0.08 0.18,-0.079C0.192,-0.067 0.204,-0.06 0.218,-0.06C0.231,-0.06 0.239,-0.06 0.242,-0.06C0.264,-0.06 0.286,-0.062 0.309,-0.066C0.334,-0.072 0.354,-0.077 0.369,-0.083L0.396,-0.093C0.42,-0.104 0.449,-0.113 0.481,-0.12L0.491,-0.121C0.501,-0.121 0.51,-0.118 0.517,-0.113C0.524,-0.108 0.528,-0.1 0.528,-0.09L0.528,-0.085C0.521,-0.059 0.506,-0.037 0.483,-0.018C0.459,0.001 0.435,0.015 0.411,0.023C0.361,0.043 0.318,0.053 0.282,0.053C0.243,0.053 0.194,0.04 0.134,0.013C0.115,0.005 0.1,0 0.089,0C0.075,0 0.057,0.014 0.037,0.041C0.015,0.066 -0.004,0.087 -0.021,0.104C-0.04,0.124 -0.058,0.144 -0.075,0.165C-0.098,0.192 -0.118,0.223 -0.136,0.257C-0.149,0.281 -0.159,0.296 -0.168,0.3C-0.176,0.305 -0.183,0.307 -0.187,0.307Z" style="fill-rule:nonzero;"/>
        </g>
        <g transform="matrix(208.333,0,0,208.333,611.148,1021.6)">
            <path d="M0.065,-0.109C0.072,-0.109 0.081,-0.112 0.094,-0.117C0.148,-0.142 0.203,-0.171 0.258,-0.206C0.325,-0.242 0.358,-0.265 0.358,-0.274C0.357,-0.278 0.353,-0.279 0.347,-0.279C0.318,-0.279 0.264,-0.256 0.186,-0.209C0.139,-0.181 0.102,-0.156 0.075,-0.133C0.065,-0.123 0.06,-0.117 0.06,-0.113C0.06,-0.11 0.062,-0.109 0.065,-0.109ZM-0.01,0.031C-0.042,0.031 -0.067,0.019 -0.085,-0.006C-0.101,-0.03 -0.109,-0.052 -0.109,-0.073C-0.109,-0.102 -0.074,-0.147 -0.005,-0.208C0.039,-0.245 0.085,-0.28 0.133,-0.312C0.181,-0.344 0.222,-0.366 0.255,-0.379C0.285,-0.392 0.314,-0.398 0.341,-0.398C0.372,-0.398 0.4,-0.382 0.424,-0.349C0.436,-0.331 0.447,-0.322 0.456,-0.322C0.461,-0.322 0.466,-0.324 0.473,-0.328C0.481,-0.336 0.491,-0.345 0.501,-0.357C0.509,-0.366 0.516,-0.373 0.523,-0.38C0.541,-0.397 0.555,-0.407 0.564,-0.408C0.574,-0.41 0.58,-0.411 0.584,-0.411C0.604,-0.411 0.625,-0.403 0.648,-0.389C0.649,-0.388 0.65,-0.388 0.65,-0.387C0.665,-0.376 0.673,-0.365 0.673,-0.354C0.673,-0.35 0.672,-0.346 0.67,-0.343C0.663,-0.328 0.651,-0.315 0.634,-0.301C0.617,-0.287 0.601,-0.274 0.587,-0.263C0.567,-0.249 0.549,-0.234 0.532,-0.218C0.516,-0.201 0.499,-0.18 0.482,-0.152C0.473,-0.135 0.468,-0.121 0.468,-0.112C0.468,-0.109 0.468,-0.107 0.469,-0.104C0.473,-0.097 0.481,-0.093 0.493,-0.093C0.507,-0.093 0.525,-0.096 0.545,-0.103C0.59,-0.117 0.638,-0.137 0.688,-0.164C0.723,-0.183 0.759,-0.2 0.794,-0.213C0.811,-0.219 0.827,-0.223 0.841,-0.223C0.863,-0.223 0.875,-0.212 0.876,-0.191C0.875,-0.173 0.863,-0.154 0.838,-0.134C0.813,-0.113 0.783,-0.093 0.747,-0.074C0.712,-0.055 0.677,-0.038 0.645,-0.024C0.612,-0.01 0.587,-0.001 0.571,0.003C0.547,0.01 0.529,0.013 0.515,0.014C0.501,0.014 0.493,0.015 0.491,0.015C0.436,0.015 0.398,-0.008 0.38,-0.053C0.378,-0.058 0.377,-0.067 0.375,-0.078C0.369,-0.109 0.364,-0.128 0.358,-0.137C0.354,-0.143 0.349,-0.146 0.344,-0.146C0.334,-0.146 0.313,-0.132 0.279,-0.105C0.246,-0.08 0.196,-0.051 0.13,-0.017C0.069,0.015 0.023,0.031 -0.01,0.031Z" style="fill-rule:nonzero;"/>
        </g>
        <g transform="matrix(208.333,0,0,208.333,780.622,1021.6)">
            <path d="M0.464,0.09C0.425,0.09 0.395,0.072 0.373,0.037C0.365,0.019 0.361,0.001 0.361,-0.016C0.361,-0.028 0.363,-0.039 0.366,-0.05C0.375,-0.078 0.389,-0.106 0.409,-0.132C0.429,-0.158 0.453,-0.186 0.481,-0.217C0.514,-0.253 0.547,-0.289 0.581,-0.323C0.632,-0.374 0.679,-0.427 0.725,-0.481C0.742,-0.503 0.751,-0.516 0.753,-0.521C0.755,-0.527 0.756,-0.53 0.756,-0.531C0.756,-0.534 0.755,-0.536 0.752,-0.536C0.746,-0.536 0.735,-0.531 0.72,-0.522C0.698,-0.51 0.674,-0.493 0.647,-0.474C0.642,-0.47 0.638,-0.467 0.635,-0.465C0.418,-0.315 0.238,-0.172 0.094,-0.037C0.037,0.017 -0.006,0.051 -0.037,0.064C-0.053,0.072 -0.067,0.076 -0.077,0.076C-0.085,0.076 -0.093,0.074 -0.101,0.07C-0.12,0.059 -0.132,0.045 -0.136,0.03C-0.14,0.014 -0.142,0.002 -0.142,-0.006C-0.142,-0.019 -0.139,-0.032 -0.132,-0.045C-0.119,-0.068 -0.093,-0.103 -0.053,-0.149C-0.042,-0.162 -0.031,-0.175 -0.022,-0.186C0.049,-0.274 0.122,-0.357 0.197,-0.435C0.236,-0.478 0.268,-0.5 0.293,-0.502C0.315,-0.5 0.333,-0.492 0.347,-0.479C0.361,-0.465 0.369,-0.451 0.369,-0.436C0.369,-0.43 0.367,-0.422 0.364,-0.412C0.358,-0.396 0.354,-0.386 0.354,-0.382C0.354,-0.38 0.355,-0.379 0.356,-0.379C0.36,-0.379 0.369,-0.385 0.385,-0.398C0.393,-0.404 0.404,-0.412 0.417,-0.422C0.657,-0.604 0.81,-0.696 0.877,-0.696C0.882,-0.696 0.886,-0.695 0.891,-0.694C0.932,-0.682 0.953,-0.669 0.954,-0.654C0.955,-0.64 0.955,-0.632 0.955,-0.63C0.955,-0.604 0.944,-0.576 0.922,-0.547C0.866,-0.474 0.786,-0.382 0.682,-0.27C0.653,-0.239 0.624,-0.207 0.593,-0.173C0.526,-0.1 0.493,-0.055 0.493,-0.039C0.493,-0.033 0.496,-0.03 0.504,-0.03C0.517,-0.03 0.548,-0.044 0.598,-0.071C0.643,-0.097 0.686,-0.124 0.729,-0.152C0.807,-0.204 0.869,-0.241 0.917,-0.262C0.958,-0.281 0.996,-0.29 1.029,-0.29C1.057,-0.29 1.081,-0.284 1.102,-0.271C1.13,-0.253 1.15,-0.224 1.161,-0.184C1.163,-0.173 1.165,-0.163 1.167,-0.154C1.17,-0.139 1.173,-0.127 1.177,-0.119C1.181,-0.111 1.188,-0.107 1.198,-0.107C1.222,-0.107 1.271,-0.13 1.345,-0.177C1.354,-0.183 1.367,-0.191 1.383,-0.199C1.404,-0.209 1.422,-0.214 1.437,-0.214C1.45,-0.214 1.459,-0.208 1.466,-0.197C1.468,-0.191 1.47,-0.186 1.47,-0.18C1.47,-0.164 1.461,-0.147 1.442,-0.128C1.427,-0.112 1.391,-0.086 1.334,-0.051C1.3,-0.029 1.272,-0.014 1.251,-0.006C1.234,-0.001 1.217,0.002 1.203,0.002C1.189,0.002 1.176,-0 1.165,-0.005C1.142,-0.015 1.123,-0.031 1.108,-0.054C1.092,-0.077 1.078,-0.102 1.065,-0.131C1.052,-0.16 1.042,-0.175 1.033,-0.177C1.025,-0.179 1.019,-0.18 1.015,-0.18C1.001,-0.18 0.982,-0.174 0.959,-0.164C0.927,-0.15 0.875,-0.122 0.803,-0.079C0.626,0.034 0.513,0.09 0.464,0.09ZM0.197,-0.262C0.201,-0.262 0.21,-0.268 0.225,-0.28L0.289,-0.328C0.289,-0.328 0.289,-0.328 0.289,-0.328C0.303,-0.338 0.311,-0.346 0.311,-0.353C0.311,-0.356 0.309,-0.358 0.307,-0.36C0.29,-0.36 0.265,-0.342 0.232,-0.307C0.208,-0.281 0.197,-0.267 0.197,-0.263C0.197,-0.262 0.197,-0.262 0.197,-0.262Z" style="fill-rule:nonzero;"/>
        </g>
        <g transform="matrix(208.333,0,0,208.333,1072.47,1021.6)">
            <path d="M-0.63,0.649C-0.634,0.649 -0.639,0.649 -0.643,0.648C-0.668,0.645 -0.69,0.626 -0.708,0.592C-0.716,0.573 -0.72,0.554 -0.72,0.534C-0.72,0.522 -0.718,0.51 -0.715,0.498C-0.708,0.465 -0.694,0.434 -0.676,0.404C-0.657,0.374 -0.639,0.347 -0.62,0.323C-0.547,0.226 -0.468,0.141 -0.383,0.066C-0.297,-0.009 -0.207,-0.078 -0.112,-0.142C-0.017,-0.205 0.081,-0.267 0.183,-0.328C0.205,-0.34 0.222,-0.352 0.235,-0.364C0.248,-0.375 0.261,-0.391 0.274,-0.412C0.295,-0.45 0.317,-0.469 0.34,-0.469C0.352,-0.469 0.366,-0.465 0.382,-0.456C0.393,-0.45 0.402,-0.448 0.411,-0.448C0.433,-0.448 0.477,-0.459 0.541,-0.481C0.615,-0.507 0.672,-0.52 0.712,-0.52C0.724,-0.52 0.736,-0.519 0.747,-0.518C0.781,-0.514 0.813,-0.5 0.844,-0.474C0.86,-0.46 0.869,-0.445 0.873,-0.429C0.876,-0.413 0.878,-0.4 0.878,-0.39C0.878,-0.379 0.877,-0.369 0.874,-0.358C0.849,-0.277 0.768,-0.188 0.63,-0.089C0.57,-0.046 0.51,-0.008 0.451,0.025C0.391,0.058 0.341,0.083 0.298,0.1C0.212,0.136 0.131,0.155 0.055,0.157C0.036,0.157 0.019,0.154 0.004,0.148C-0.014,0.143 -0.027,0.14 -0.035,0.14C-0.05,0.14 -0.064,0.15 -0.078,0.169C-0.082,0.174 -0.086,0.179 -0.091,0.185C-0.375,0.494 -0.555,0.649 -0.63,0.649ZM0.063,0.054C0.083,0.054 0.123,0.043 0.183,0.021C0.252,-0.004 0.301,-0.024 0.33,-0.038C0.449,-0.091 0.55,-0.154 0.634,-0.227C0.679,-0.267 0.718,-0.311 0.749,-0.358C0.758,-0.376 0.763,-0.39 0.763,-0.4C0.763,-0.404 0.762,-0.407 0.761,-0.41C0.757,-0.42 0.75,-0.426 0.74,-0.427C0.73,-0.428 0.722,-0.428 0.717,-0.428C0.706,-0.428 0.692,-0.427 0.678,-0.424C0.633,-0.417 0.58,-0.401 0.52,-0.379C0.459,-0.357 0.41,-0.333 0.371,-0.308C0.343,-0.288 0.318,-0.266 0.293,-0.24C0.269,-0.214 0.246,-0.187 0.224,-0.159C0.209,-0.141 0.187,-0.115 0.158,-0.083C0.124,-0.047 0.095,-0.014 0.07,0.016C0.056,0.033 0.049,0.044 0.049,0.048C0.05,0.052 0.055,0.054 0.063,0.054ZM-0.583,0.49C-0.559,0.49 -0.472,0.414 -0.323,0.261C-0.308,0.246 -0.298,0.236 -0.293,0.232C-0.229,0.173 -0.172,0.12 -0.123,0.071C-0.071,0.02 -0.03,-0.028 -0.002,-0.071C0.003,-0.081 0.006,-0.087 0.006,-0.091C0.006,-0.093 0.005,-0.094 0.003,-0.094C-0.009,-0.094 -0.062,-0.054 -0.156,0.026C-0.232,0.088 -0.3,0.145 -0.362,0.2C-0.423,0.254 -0.478,0.311 -0.527,0.369C-0.547,0.394 -0.564,0.42 -0.578,0.446C-0.586,0.461 -0.59,0.473 -0.59,0.482C-0.59,0.487 -0.588,0.49 -0.583,0.49Z" style="fill-rule:nonzero;"/>
        </g>
        <g transform="matrix(208.333,0,0,208.333,1257.1,1021.6)">
            <path d="M0.155,0.087C0.135,0.087 0.116,0.085 0.097,0.08C0.055,0.07 0.019,0.043 -0.012,0C-0.029,-0.026 -0.038,-0.048 -0.038,-0.064C-0.038,-0.08 -0.039,-0.088 -0.039,-0.089C-0.039,-0.119 -0.033,-0.148 -0.022,-0.177C-0.006,-0.214 0.015,-0.25 0.04,-0.285C0.064,-0.32 0.09,-0.354 0.117,-0.387C0.139,-0.413 0.159,-0.44 0.179,-0.466C0.222,-0.526 0.291,-0.602 0.386,-0.694C0.595,-0.904 0.824,-1.09 1.073,-1.251C1.117,-1.282 1.155,-1.306 1.186,-1.323C1.225,-1.344 1.26,-1.355 1.291,-1.356C1.327,-1.356 1.353,-1.34 1.371,-1.307C1.375,-1.294 1.378,-1.283 1.378,-1.272C1.378,-1.25 1.363,-1.223 1.333,-1.194C1.33,-1.19 1.327,-1.186 1.323,-1.183C1.24,-1.09 1.118,-0.978 0.959,-0.848C0.929,-0.824 0.899,-0.798 0.869,-0.771C0.77,-0.681 0.668,-0.594 0.563,-0.512C0.514,-0.472 0.466,-0.436 0.42,-0.405C0.375,-0.374 0.323,-0.345 0.265,-0.319C0.228,-0.303 0.197,-0.283 0.171,-0.26C0.146,-0.238 0.123,-0.209 0.103,-0.173C0.088,-0.146 0.08,-0.125 0.077,-0.109C0.075,-0.093 0.073,-0.082 0.073,-0.077C0.073,-0.057 0.079,-0.042 0.09,-0.03C0.101,-0.017 0.119,-0.011 0.144,-0.011C0.153,-0.011 0.162,-0.012 0.173,-0.013C0.217,-0.022 0.26,-0.036 0.302,-0.057C0.353,-0.082 0.403,-0.11 0.452,-0.14C0.55,-0.2 0.611,-0.229 0.633,-0.229C0.64,-0.229 0.644,-0.226 0.644,-0.219C0.644,-0.215 0.642,-0.209 0.639,-0.202C0.632,-0.189 0.622,-0.175 0.608,-0.161C0.575,-0.125 0.535,-0.089 0.489,-0.054C0.443,-0.019 0.397,0.009 0.354,0.031C0.312,0.051 0.274,0.066 0.24,0.074C0.206,0.083 0.178,0.087 0.155,0.087ZM0.411,-0.54C0.426,-0.54 0.487,-0.584 0.596,-0.673C0.693,-0.746 0.788,-0.822 0.882,-0.9C0.975,-0.978 1.064,-1.061 1.148,-1.149C1.164,-1.165 1.171,-1.175 1.171,-1.178C1.171,-1.179 1.171,-1.179 1.17,-1.179C1.155,-1.179 1.047,-1.102 0.846,-0.948C0.627,-0.784 0.484,-0.654 0.417,-0.559C0.411,-0.551 0.409,-0.545 0.409,-0.542C0.409,-0.541 0.41,-0.54 0.411,-0.54Z" style="fill-rule:nonzero;"/>
        </g>
        <g transform="matrix(208.333,0,0,208.333,1380.6,1021.6)">
            <path d="M0.19,0.082C0.095,0.082 0.029,0.037 -0.01,-0.051C-0.02,-0.077 -0.024,-0.102 -0.024,-0.126C-0.024,-0.142 -0.022,-0.158 -0.018,-0.173C-0.007,-0.212 0.012,-0.247 0.04,-0.279C0.068,-0.312 0.098,-0.339 0.132,-0.363C0.187,-0.402 0.24,-0.421 0.292,-0.421C0.324,-0.421 0.354,-0.413 0.381,-0.397C0.41,-0.377 0.426,-0.36 0.427,-0.347C0.428,-0.333 0.429,-0.325 0.429,-0.323C0.429,-0.299 0.419,-0.275 0.4,-0.249C0.377,-0.221 0.344,-0.195 0.304,-0.173C0.252,-0.144 0.208,-0.13 0.173,-0.13C0.157,-0.13 0.142,-0.132 0.128,-0.135C0.116,-0.138 0.105,-0.139 0.097,-0.139L0.092,-0.139C0.079,-0.136 0.073,-0.131 0.072,-0.124C0.072,-0.116 0.071,-0.112 0.071,-0.11C0.071,-0.098 0.074,-0.086 0.08,-0.073C0.086,-0.058 0.095,-0.047 0.105,-0.039C0.126,-0.026 0.152,-0.02 0.182,-0.02C0.222,-0.02 0.271,-0.029 0.328,-0.049C0.396,-0.072 0.478,-0.108 0.574,-0.157C0.589,-0.165 0.602,-0.171 0.614,-0.177C0.62,-0.18 0.636,-0.188 0.663,-0.2C0.692,-0.213 0.714,-0.219 0.729,-0.219C0.742,-0.219 0.748,-0.214 0.75,-0.203C0.749,-0.181 0.709,-0.145 0.631,-0.096C0.514,-0.021 0.41,0.031 0.321,0.061C0.277,0.075 0.233,0.082 0.19,0.082ZM0.178,-0.245C0.188,-0.245 0.205,-0.251 0.229,-0.262C0.24,-0.267 0.249,-0.271 0.254,-0.274C0.292,-0.295 0.311,-0.308 0.311,-0.312C0.311,-0.313 0.31,-0.313 0.308,-0.313C0.303,-0.313 0.293,-0.311 0.279,-0.306C0.216,-0.284 0.179,-0.264 0.169,-0.247C0.171,-0.246 0.174,-0.245 0.178,-0.245Z" style="fill-rule:nonzero;"/>
        </g>
    </g>
    <g transform="matrix(1,0,0,1,289.708,175.349)">
        <g transform="matrix(208.333,0,0,208.333,213.469,1616.26)">
            <path d="M0.415,0.317L0.404,0.317C0.331,0.317 0.266,0.302 0.209,0.272C0.166,0.245 0.13,0.209 0.101,0.164C0.079,0.133 0.069,0.102 0.069,0.072C0.069,0.06 0.071,0.049 0.075,0.037C0.077,0.033 0.079,0.031 0.081,0.031C0.084,0.031 0.089,0.038 0.095,0.053C0.097,0.056 0.098,0.059 0.1,0.061C0.149,0.124 0.193,0.165 0.232,0.184C0.271,0.203 0.31,0.213 0.348,0.213C0.397,0.213 0.471,0.198 0.57,0.167C0.668,0.136 0.77,0.096 0.877,0.048C0.983,0 1.08,-0.05 1.168,-0.103C1.216,-0.131 1.254,-0.161 1.281,-0.191C1.297,-0.209 1.305,-0.226 1.305,-0.241L1.305,-0.248C1.302,-0.267 1.281,-0.282 1.241,-0.293L1.231,-0.296C1.176,-0.309 1.122,-0.316 1.069,-0.319C1.016,-0.321 0.972,-0.322 0.937,-0.322C0.887,-0.322 0.85,-0.321 0.825,-0.318C0.811,-0.317 0.796,-0.317 0.781,-0.317C0.749,-0.317 0.721,-0.319 0.697,-0.324C0.674,-0.329 0.652,-0.339 0.63,-0.354C0.618,-0.365 0.607,-0.378 0.597,-0.394C0.587,-0.409 0.582,-0.422 0.582,-0.431C0.581,-0.44 0.581,-0.445 0.581,-0.447C0.581,-0.462 0.587,-0.476 0.599,-0.489C0.61,-0.498 0.636,-0.513 0.679,-0.535C0.74,-0.568 0.819,-0.611 0.916,-0.664C0.995,-0.707 1.052,-0.738 1.086,-0.757C1.129,-0.781 1.171,-0.804 1.214,-0.827C1.301,-0.873 1.387,-0.922 1.472,-0.974C1.546,-1.021 1.583,-1.061 1.583,-1.096C1.583,-1.102 1.58,-1.108 1.574,-1.115C1.547,-1.137 1.489,-1.151 1.403,-1.157C1.368,-1.16 1.336,-1.161 1.306,-1.161C1.189,-1.161 1.062,-1.148 0.926,-1.122C0.778,-1.094 0.633,-1.053 0.492,-0.999C0.445,-0.98 0.399,-0.959 0.354,-0.937C0.339,-0.929 0.326,-0.92 0.317,-0.91C0.309,-0.9 0.304,-0.886 0.303,-0.867L0.303,-0.862C0.303,-0.838 0.292,-0.826 0.272,-0.826C0.267,-0.826 0.261,-0.827 0.255,-0.828C0.228,-0.835 0.207,-0.847 0.192,-0.865C0.178,-0.882 0.17,-0.901 0.17,-0.92C0.17,-0.947 0.184,-0.971 0.211,-0.992C0.307,-1.053 0.423,-1.105 0.557,-1.148C0.691,-1.192 0.822,-1.223 0.949,-1.243C1.076,-1.263 1.189,-1.273 1.286,-1.273C1.355,-1.273 1.419,-1.268 1.478,-1.258C1.577,-1.241 1.647,-1.197 1.686,-1.125C1.694,-1.104 1.698,-1.083 1.698,-1.065C1.698,-1 1.63,-0.927 1.495,-0.846C1.45,-0.819 1.406,-0.794 1.362,-0.77C1.336,-0.755 1.311,-0.741 1.288,-0.728C1.219,-0.689 1.15,-0.651 1.08,-0.615C1.021,-0.583 0.969,-0.555 0.925,-0.531C0.896,-0.514 0.864,-0.497 0.83,-0.48C0.804,-0.47 0.781,-0.456 0.761,-0.438C0.781,-0.434 0.8,-0.433 0.819,-0.433C0.831,-0.433 0.843,-0.433 0.854,-0.435C0.869,-0.436 0.886,-0.437 0.906,-0.437C0.93,-0.438 0.955,-0.438 0.979,-0.438C1.015,-0.438 1.051,-0.437 1.087,-0.435C1.149,-0.431 1.208,-0.419 1.263,-0.398C1.319,-0.377 1.365,-0.341 1.403,-0.29C1.417,-0.267 1.425,-0.245 1.425,-0.224C1.425,-0.215 1.424,-0.205 1.421,-0.196C1.411,-0.165 1.395,-0.136 1.37,-0.109C1.323,-0.06 1.251,-0.009 1.154,0.042C1.108,0.066 1.044,0.098 0.961,0.138C0.732,0.251 0.549,0.311 0.415,0.317ZM0.075,-0.077C0.059,-0.077 0.039,-0.092 0.015,-0.123C0.005,-0.139 0,-0.153 0,-0.167C0,-0.186 0.017,-0.214 0.05,-0.248C0.124,-0.333 0.198,-0.411 0.273,-0.482C0.348,-0.553 0.425,-0.623 0.504,-0.691C0.54,-0.722 0.574,-0.755 0.606,-0.79C0.666,-0.851 0.701,-0.884 0.713,-0.886C0.722,-0.888 0.728,-0.889 0.73,-0.889C0.744,-0.889 0.759,-0.882 0.775,-0.867C0.791,-0.852 0.799,-0.837 0.799,-0.823C0.799,-0.808 0.793,-0.794 0.781,-0.78C0.765,-0.761 0.751,-0.747 0.739,-0.738C0.693,-0.696 0.646,-0.655 0.599,-0.614C0.537,-0.559 0.476,-0.505 0.415,-0.449C0.292,-0.337 0.214,-0.256 0.181,-0.208C0.166,-0.186 0.15,-0.161 0.134,-0.131C0.113,-0.097 0.099,-0.08 0.09,-0.079C0.081,-0.078 0.076,-0.077 0.075,-0.077Z" style="fill-rule:nonzero;"/>
        </g>
        <g transform="matrix(208.333,0,0,208.333,537.057,1616.26)">
            <path d="M0.013,0C0.048,0 0.114,-0.035 0.21,-0.107C0.248,-0.135 0.275,-0.156 0.293,-0.171C0.322,-0.193 0.337,-0.215 0.337,-0.236C0.337,-0.25 0.328,-0.264 0.309,-0.276C0.292,-0.288 0.274,-0.294 0.258,-0.294C0.238,-0.294 0.219,-0.286 0.201,-0.27C0.189,-0.259 0.172,-0.242 0.15,-0.219C0.111,-0.18 0.077,-0.144 0.048,-0.11C0.013,-0.067 -0.005,-0.037 -0.005,-0.019C-0.005,-0.013 -0.003,-0.009 0,-0.004C0.006,-0.001 0.01,0 0.013,0ZM0.85,-0.024C0.852,-0.024 0.855,-0.024 0.859,-0.025C0.894,-0.038 0.939,-0.064 0.993,-0.102C1.048,-0.14 1.1,-0.182 1.149,-0.227C1.21,-0.282 1.24,-0.317 1.24,-0.333C1.24,-0.348 1.233,-0.353 1.22,-0.349C1.216,-0.335 1.211,-0.325 1.206,-0.318C1.2,-0.308 1.179,-0.301 1.144,-0.295C1.132,-0.294 1.122,-0.292 1.114,-0.289C1.105,-0.286 1.095,-0.28 1.084,-0.271C1.08,-0.268 1.074,-0.264 1.063,-0.259C1.036,-0.246 0.996,-0.215 0.943,-0.167C0.909,-0.135 0.881,-0.105 0.86,-0.079C0.847,-0.062 0.84,-0.047 0.839,-0.036C0.839,-0.028 0.842,-0.024 0.85,-0.024ZM0.727,-0.093C0.718,-0.091 0.709,-0.088 0.701,-0.086C0.654,-0.076 0.614,-0.071 0.58,-0.071C0.543,-0.071 0.514,-0.076 0.491,-0.087C0.477,-0.094 0.459,-0.105 0.439,-0.119C0.418,-0.133 0.403,-0.141 0.393,-0.141C0.382,-0.141 0.37,-0.132 0.357,-0.116C0.337,-0.092 0.297,-0.058 0.237,-0.012C0.142,0.062 0.068,0.105 0.015,0.118C0.005,0.12 -0.007,0.121 -0.02,0.121C-0.036,0.121 -0.05,0.117 -0.06,0.109C-0.076,0.095 -0.089,0.077 -0.1,0.055C-0.112,0.034 -0.117,0.014 -0.117,-0.005L-0.116,-0.016C-0.105,-0.061 -0.079,-0.111 -0.038,-0.165C0.003,-0.219 0.049,-0.269 0.099,-0.316C0.15,-0.362 0.195,-0.397 0.236,-0.419C0.262,-0.432 0.285,-0.438 0.307,-0.438C0.336,-0.438 0.365,-0.427 0.393,-0.405C0.415,-0.388 0.437,-0.367 0.459,-0.344C0.477,-0.327 0.486,-0.315 0.488,-0.307C0.489,-0.3 0.489,-0.295 0.489,-0.292C0.489,-0.281 0.486,-0.266 0.48,-0.248C0.478,-0.239 0.477,-0.232 0.477,-0.226C0.477,-0.215 0.48,-0.206 0.487,-0.201C0.498,-0.193 0.514,-0.187 0.534,-0.183C0.563,-0.177 0.588,-0.174 0.61,-0.174C0.645,-0.174 0.685,-0.182 0.731,-0.199C0.757,-0.208 0.787,-0.216 0.821,-0.224L0.827,-0.225C0.829,-0.227 0.832,-0.23 0.834,-0.233C0.88,-0.282 0.93,-0.325 0.984,-0.362C1.038,-0.4 1.089,-0.422 1.136,-0.428C1.159,-0.43 1.179,-0.434 1.195,-0.441C1.22,-0.451 1.241,-0.456 1.258,-0.456C1.275,-0.455 1.29,-0.45 1.305,-0.441C1.33,-0.427 1.346,-0.41 1.354,-0.39C1.361,-0.371 1.365,-0.355 1.364,-0.342C1.364,-0.328 1.36,-0.314 1.354,-0.299C1.319,-0.235 1.252,-0.161 1.153,-0.078C1.013,0.042 0.91,0.1 0.846,0.098C0.828,0.097 0.81,0.093 0.791,0.085C0.76,0.065 0.739,0.042 0.73,0.017C0.72,-0.008 0.716,-0.028 0.716,-0.045C0.717,-0.061 0.721,-0.077 0.727,-0.093Z" style="fill-rule:nonzero;"/>
        </g>
        <g transform="matrix(208.333,0,0,208.333,828.703,1616.26)">
            <path d="M-0.15,0.156C-0.159,0.156 -0.168,0.152 -0.178,0.144L-0.189,0.132C-0.202,0.116 -0.208,0.099 -0.208,0.083C-0.208,0.059 -0.199,0.035 -0.182,0.009C-0.168,-0.013 -0.15,-0.035 -0.13,-0.06C-0.08,-0.122 -0.028,-0.183 0.027,-0.242C0.05,-0.268 0.073,-0.294 0.096,-0.319C0.249,-0.495 0.405,-0.659 0.564,-0.812C0.724,-0.965 0.899,-1.108 1.09,-1.242C1.106,-1.252 1.121,-1.264 1.138,-1.276C1.161,-1.295 1.186,-1.313 1.212,-1.33C1.238,-1.347 1.263,-1.36 1.285,-1.367C1.308,-1.374 1.328,-1.378 1.346,-1.378C1.357,-1.378 1.368,-1.377 1.379,-1.375C1.392,-1.37 1.404,-1.363 1.413,-1.353C1.425,-1.341 1.431,-1.328 1.431,-1.312C1.431,-1.305 1.429,-1.297 1.425,-1.29C1.417,-1.27 1.404,-1.253 1.389,-1.237C1.318,-1.162 1.241,-1.088 1.16,-1.015C1.115,-0.974 1.07,-0.936 1.025,-0.9C0.995,-0.876 0.965,-0.851 0.936,-0.826C0.705,-0.628 0.536,-0.49 0.429,-0.412C0.392,-0.386 0.354,-0.361 0.314,-0.338C0.264,-0.31 0.217,-0.278 0.173,-0.244C0.159,-0.235 0.152,-0.227 0.152,-0.221C0.152,-0.219 0.154,-0.217 0.159,-0.217C0.173,-0.217 0.213,-0.233 0.278,-0.265C0.304,-0.278 0.328,-0.29 0.349,-0.301C0.371,-0.312 0.387,-0.319 0.398,-0.325C0.475,-0.365 0.535,-0.385 0.579,-0.385C0.596,-0.385 0.612,-0.382 0.626,-0.375C0.651,-0.363 0.664,-0.347 0.664,-0.326C0.664,-0.322 0.663,-0.318 0.662,-0.313C0.656,-0.298 0.641,-0.285 0.617,-0.275C0.594,-0.266 0.57,-0.258 0.545,-0.252C0.53,-0.249 0.518,-0.245 0.508,-0.241C0.433,-0.212 0.359,-0.179 0.285,-0.143C0.238,-0.12 0.19,-0.098 0.143,-0.077C0.103,-0.061 0.083,-0.046 0.083,-0.035C0.083,-0.023 0.1,-0.012 0.133,-0C0.184,0.015 0.236,0.024 0.29,0.024C0.41,0.022 0.54,-0.019 0.679,-0.098C0.705,-0.113 0.73,-0.128 0.754,-0.143C0.79,-0.164 0.816,-0.179 0.832,-0.188C0.861,-0.202 0.883,-0.209 0.898,-0.209C0.901,-0.209 0.904,-0.209 0.907,-0.208C0.916,-0.207 0.921,-0.2 0.921,-0.188C0.921,-0.17 0.906,-0.148 0.877,-0.122C0.829,-0.077 0.76,-0.029 0.67,0.022C0.57,0.08 0.481,0.113 0.404,0.122C0.352,0.128 0.315,0.131 0.292,0.131C0.235,0.131 0.18,0.123 0.125,0.105C0.108,0.099 0.092,0.092 0.08,0.084C0.068,0.076 0.056,0.068 0.045,0.06C0.011,0.033 -0.015,0.019 -0.032,0.019C-0.049,0.019 -0.062,0.035 -0.074,0.066C-0.084,0.09 -0.095,0.109 -0.106,0.125C-0.121,0.145 -0.135,0.156 -0.15,0.156ZM0.499,-0.591C0.508,-0.591 0.558,-0.626 0.648,-0.697C0.846,-0.845 1.015,-0.988 1.157,-1.125C1.198,-1.164 1.219,-1.188 1.219,-1.195C1.219,-1.196 1.218,-1.196 1.217,-1.196C1.207,-1.196 1.165,-1.17 1.091,-1.117C1.076,-1.106 1.064,-1.097 1.057,-1.092C0.857,-0.939 0.684,-0.788 0.537,-0.64C0.511,-0.613 0.498,-0.597 0.498,-0.593C0.498,-0.592 0.498,-0.591 0.499,-0.591Z" style="fill-rule:nonzero;"/>
        </g>
        <g transform="matrix(208.333,0,0,208.333,1009.88,1616.26)">
            <path d="M-0.186,0.445C-0.193,0.445 -0.201,0.445 -0.209,0.444C-0.24,0.439 -0.264,0.421 -0.281,0.388C-0.288,0.371 -0.291,0.355 -0.291,0.339C-0.291,0.328 -0.29,0.318 -0.287,0.308C-0.276,0.264 -0.247,0.219 -0.2,0.172C-0.168,0.138 -0.132,0.11 -0.095,0.086C-0.057,0.063 -0.017,0.041 0.024,0.02L0.031,0.017C0.059,-0.001 0.073,-0.017 0.073,-0.03C0.073,-0.044 0.066,-0.059 0.051,-0.077C0.043,-0.087 0.035,-0.1 0.027,-0.115C0.005,-0.156 -0.007,-0.188 -0.008,-0.209C-0.008,-0.231 -0.008,-0.242 -0.008,-0.244C-0.008,-0.284 0.007,-0.322 0.039,-0.358C0.072,-0.392 0.115,-0.425 0.166,-0.456C0.218,-0.487 0.266,-0.511 0.312,-0.528C0.326,-0.534 0.34,-0.536 0.353,-0.536C0.384,-0.536 0.412,-0.518 0.434,-0.481C0.44,-0.47 0.443,-0.459 0.443,-0.45C0.443,-0.443 0.442,-0.436 0.438,-0.43C0.431,-0.416 0.417,-0.404 0.399,-0.396C0.386,-0.391 0.373,-0.389 0.362,-0.389C0.356,-0.389 0.35,-0.389 0.345,-0.39C0.34,-0.391 0.334,-0.391 0.328,-0.391C0.321,-0.391 0.313,-0.391 0.305,-0.39C0.29,-0.388 0.269,-0.38 0.241,-0.367C0.201,-0.349 0.169,-0.33 0.143,-0.308C0.117,-0.287 0.102,-0.267 0.098,-0.248C0.094,-0.229 0.092,-0.216 0.092,-0.208C0.092,-0.182 0.1,-0.152 0.115,-0.118C0.118,-0.111 0.124,-0.102 0.131,-0.092C0.138,-0.082 0.145,-0.074 0.153,-0.067C0.161,-0.061 0.168,-0.058 0.175,-0.058C0.177,-0.058 0.179,-0.058 0.182,-0.059C0.215,-0.071 0.248,-0.084 0.278,-0.098C0.316,-0.115 0.357,-0.131 0.4,-0.144C0.434,-0.154 0.466,-0.165 0.497,-0.177C0.511,-0.183 0.53,-0.189 0.553,-0.195C0.594,-0.207 0.626,-0.213 0.651,-0.213C0.66,-0.213 0.669,-0.212 0.677,-0.21C0.689,-0.207 0.695,-0.2 0.695,-0.189C0.695,-0.187 0.694,-0.183 0.694,-0.18C0.682,-0.142 0.626,-0.111 0.528,-0.085C0.484,-0.074 0.444,-0.062 0.41,-0.05C0.409,-0.05 0.409,-0.05 0.408,-0.05C0.291,-0.009 0.222,0.024 0.201,0.049C0.2,0.053 0.199,0.056 0.199,0.061C0.199,0.065 0.2,0.071 0.201,0.077C0.203,0.087 0.204,0.098 0.204,0.111C0.204,0.124 0.201,0.139 0.195,0.156L0.191,0.165C0.16,0.227 0.117,0.281 0.063,0.326C0.008,0.371 -0.051,0.406 -0.115,0.431C-0.139,0.441 -0.162,0.445 -0.186,0.445ZM-0.173,0.332C-0.163,0.332 -0.145,0.325 -0.119,0.311C-0.087,0.293 -0.051,0.269 -0.012,0.239C0.051,0.189 0.087,0.148 0.096,0.115L0.096,0.113C0.096,0.104 0.092,0.1 0.085,0.1C0.079,0.1 0.072,0.102 0.063,0.107C0.032,0.123 -0.005,0.148 -0.051,0.183C-0.096,0.218 -0.13,0.248 -0.152,0.273C-0.163,0.286 -0.172,0.299 -0.179,0.314C-0.181,0.318 -0.182,0.322 -0.182,0.325C-0.182,0.33 -0.179,0.332 -0.173,0.332Z" style="fill-rule:nonzero;"/>
        </g>
    </g>
    <g id="book-svgrepo-com.svg" transform="matrix(13.2844,0,0,13.2844,1000,1000)">
        <g transform="matrix(1,0,0,1,-39.857,-39.857)">
            <g>
                <path d="M79.712,30.231L79.712,28.474L43.913,16.169L0,41.672L0,51.239L35.799,63.546L79.714,38.046L79.714,36.284L78.515,35.831L78.515,30.926L79.712,30.231ZM45.594,17.754L3.854,41.991L2.28,41.45L44.02,17.217L45.594,17.754ZM1.941,43.661L3.038,44.035L3.038,50.527L1.941,50.148L1.941,43.661ZM4.305,50.965L4.305,44.476L6.807,45.335L7.584,45.6L35.796,55.295L72.216,34.121L72.92,33.71L77.245,31.198L77.245,37.71L35.799,61.786L4.305,50.965Z" style="fill-rule:nonzero;"/>
            </g>
        </g>
    </g>
</svg>
