<?xml version="1.0" encoding="utf-8"?><!DOCTYPE svg PUBLIC "-//W3C//DTD SVG 1.1//EN" "http://www.w3.org/Graphics/SVG/1.1/DTD/svg11.dtd"><svg version="1.1" id="Contours" xmlns="http://www.w3.org/2000/svg" xmlns:xlink="http://www.w3.org/1999/xlink" x="0px" y="0px" width="1725.719971px" height="1725.719971px" viewBox="-0.000002 -0.000003 1725.719971 1776.370605" enable-background="new 0 0 1725.719971 1725.719971" xml:space="preserve" stroke="black" fill="none" stroke-linecap='round' stroke-linejoin='round'><path class="selected"  fill="#000000" opacity="1.000000" stroke="none" 
 	d="
M1639.111260 1731.959829 C1639.797195 1739.627843 1641.001340 1747.969266 1646.618279 1753.234144 C1656.371669 1762.376204 1676.308710 1759.460432 1680.391906 1772.189665 C1672.199113 1776.985885 1661.951212 1775.375077 1652.542111 1774.112380 C1629.412997 1771.008462 1605.878029 1770.942368 1582.731846 1773.916328 C1572.375665 1775.246952 1560.880299 1776.929559 1552.316639 1770.955885 C1558.412611 1759.375532 1577.245819 1762.658105 1586.217475 1753.130525 C1590.921517 1748.135004 1591.805263 1740.760305 1592.453252 1733.929246 C1593.378601 1724.174250 1594.303951 1714.419255 1595.229302 1704.664259 C1595.902575 1697.566657 1596.573109 1690.373684 1595.406859 1683.340256 C1593.802870 1673.666902 1588.842243 1664.926722 1583.966794 1656.419281 C1569.928940 1631.923850 1555.891086 1607.428418 1541.853232 1582.932987 C1532.881497 1567.277709 1522.633426 1550.499340 1505.745246 1544.145669 C1503.405412 1543.265377 1500.867613 1542.538309 1499.163473 1540.709199 C1497.459332 1538.880090 1497.156328 1535.472320 1499.280518 1534.154157 C1500.256990 1533.548209 1501.474164 1533.530169 1502.623365 1533.530523 C1531.886997 1533.539561 1561.150627 1533.548595 1590.414258 1533.557630 C1594.064779 1533.558757 1598.721811 1534.306784 1599.552851 1537.861454 C1600.337468 1541.217541 1596.771996 1544.036922 1593.423799 1544.854551 C1590.075602 1545.672181 1586.342673 1545.562228 1583.538263 1547.565780 C1577.760210 1551.693787 1580.227132 1560.678361 1583.328371 1567.066522 C1595.560852 1592.263884 1608.777755 1616.983321 1622.938813 1641.149517 C1624.247736 1643.383228 1625.835097 1645.817482 1628.360875 1646.385984 C1632.327568 1647.278806 1635.468465 1643.175828 1637.457162 1639.629439 C1648.833397 1619.342516 1660.209631 1599.055594 1671.585865 1578.768671 C1673.676409 1575.040663 1675.814063 1571.164246 1676.169626 1566.904904 C1676.779705 1559.596672 1671.851015 1552.722041 1665.610730 1548.869602 C1659.370445 1545.017162 1651.979195 1543.590882 1644.772142 1542.234109 C1642.015989 1541.715246 1641.738046 1537.406708 1643.809564 1535.516097 C1645.881081 1533.625485 1648.968800 1533.517879 1651.773365 1533.514541 C1674.494344 1533.487502 1697.215322 1533.460463 1719.936301 1533.433423 C1721.391747 1533.431691 1722.950974 1533.461004 1724.142447 1534.296896 C1726.271160 1535.790319 1726.088926 1539.192546 1724.528270 1541.272469 C1722.967614 1543.352393 1720.493882 1544.489573 1718.211104 1545.734828 C1702.291986 1554.418705 1692.588945 1571.002947 1683.671380 1586.792345 C1672.576359 1606.437139 1661.481338 1626.081933 1650.386317 1645.726728 C1646.134755 1653.254523 1641.841761 1660.881633 1639.582003 1669.226510 C1637.347740 1677.477240 1637.182982 1686.133898 1637.265936 1694.681389 C1637.386707 1707.125442 1638.002463 1719.564684 1639.111260 1731.959829 z"/><path class="selected"  fill="#000000" opacity="1.000000" stroke="none" 
 	d="
M942.244960 1717.859075 C929.038937 1737.485911 911.388054 1754.673374 889.715942 1764.156585 C841.917942 1785.071877 786.054838 1765.296814 734.710663 1774.563637 C730.059105 1775.403170 724.870918 1776.384367 720.917971 1773.792838 C716.965024 1771.201309 717.172510 1763.416494 721.884459 1763.043200 C730.142893 1762.388953 736.860968 1755.537209 739.875599 1747.820883 C742.890230 1740.104558 742.925320 1731.594028 742.919943 1723.309726 C742.890675 1678.243627 742.861412 1633.177529 742.832150 1588.111431 C742.827074 1580.294483 742.800408 1572.331747 740.430285 1564.882773 C738.060163 1557.433799 732.929237 1550.443609 725.561170 1547.832808 C722.065391 1546.594114 718.283832 1546.397841 714.724330 1545.356313 C711.164828 1544.314786 707.584505 1542.087701 706.534673 1538.530640 C705.484840 1534.973578 708.469158 1530.405315 712.106625 1531.128966 C772.153282 1543.074872 836.934699 1520.917095 894.436349 1541.937702 C923.570131 1552.588001 948.943821 1574.868660 960.267191 1603.747501 C974.889289 1641.039337 964.606244 1684.625661 942.244960 1717.859075 M808.543159 1755.592629 C831.298040 1762.264796 856.697037 1759.368054 877.365188 1747.743513 C898.033339 1736.118972 913.700205 1715.918738 919.816688 1693.008237 C922.537500 1682.816902 923.430637 1672.205687 923.353414 1661.657694 C923.178224 1637.728066 917.859173 1613.488803 905.441146 1593.032745 C893.023118 1572.576686 873.091751 1556.209322 849.816525 1550.648605 C836.435222 1547.451658 822.493212 1547.832938 808.741125 1548.232594 C802.722005 1548.407520 796.173239 1548.780143 791.639657 1552.743351 C786.184991 1557.511761 785.620220 1565.651774 785.475350 1572.895400 C784.494123 1621.958021 784.531148 1671.041004 785.586396 1720.102088 C785.787411 1729.447787 786.336392 1739.630302 792.500884 1746.657503 C796.593076 1751.322389 802.588449 1753.846594 808.543159 1755.592629 z"/><path class="selected"  fill="#000000" opacity="1.000000" stroke="none" 
 	d="
M307.174806 1344.731834 C306.931983 1356.581188 306.689160 1368.430543 306.446337 1380.279897 C306.270481 1388.861365 306.135106 1397.690605 309.180050 1405.715619 C312.224994 1413.740632 319.252028 1420.872605 327.820502 1421.376378 C331.298225 1421.580847 336.308925 1421.971915 336.221584 1425.454548 C336.148187 1428.381216 332.232970 1429.246284 329.305461 1429.224632 C306.174638 1429.053553 283.043816 1428.882474 259.912993 1428.711395 C257.188953 1428.691248 254.164421 1428.552156 252.234586 1426.629518 C250.304751 1424.706880 251.005386 1420.447224 253.728303 1420.366438 C260.348349 1420.170031 265.917968 1414.801879 268.412947 1408.666844 C270.907926 1402.531809 270.952343 1395.716620 270.960867 1389.093667 C271.008480 1352.090006 271.056097 1315.086346 271.103713 1278.082686 C271.113038 1270.836001 271.096668 1263.428581 268.718810 1256.583121 C266.340953 1249.737661 261.115697 1243.438671 254.059247 1241.789113 C251.068706 1241.090026 247.802455 1241.212472 245.147357 1239.668933 C242.492259 1238.125394 241.171563 1233.800811 243.729843 1232.101616 C244.760289 1231.417200 246.077397 1231.389968 247.314421 1231.385843 C273.377316 1231.298932 299.440210 1231.212021 325.503105 1231.125110 C349.231885 1231.045982 375.370527 1231.844104 392.942405 1247.790588 C404.758811 1258.513979 410.653943 1275.391322 408.083959 1291.139774 C405.513975 1306.888226 394.559156 1321.015832 379.946682 1327.426304 C375.267939 1329.478863 377.116945 1336.489912 379.694801 1340.901067 C390.472816 1359.344102 401.250830 1377.787137 412.028843 1396.230171 C415.050846 1401.401337 418.161204 1406.679319 422.737381 1410.543521 C427.313557 1414.407722 433.718538 1416.652221 439.402393 1414.763508 C441.148133 1414.183409 443.379624 1413.355907 444.564332 1414.763242 C445.543765 1415.926728 444.900769 1417.700686 444.104083 1418.996171 C435.035703 1433.742123 412.527527 1434.577627 397.888910 1425.336986 C383.250294 1416.096345 374.614239 1400.031083 366.617090 1384.677773 C361.773995 1375.379768 356.930901 1366.081763 352.087807 1356.783759 C348.951185 1350.761922 345.582275 1344.476892 339.904609 1340.753316 C332.162948 1335.676115 322.101913 1336.549773 312.905144 1337.613125 C311.570055 1337.767491 310.159785 1337.951650 309.102801 1338.781754 C307.404813 1340.115270 307.219040 1342.573253 307.174805 1344.731833 M371.498593 1307.494252 C372.754256 1304.320946 373.185470 1300.882273 373.366885 1297.474393 C373.881108 1287.814709 372.414053 1277.932913 368.172733 1269.238944 C363.931412 1260.544975 356.779843 1253.117859 347.831909 1249.442483 C340.770434 1246.541972 332.969878 1246.051749 325.336050 1246.006613 C319.110131 1245.969802 311.800719 1246.807323 308.642262 1252.172728 C306.961032 1255.028706 306.916966 1258.523684 306.919652 1261.837766 C306.933673 1279.141683 306.947694 1296.445600 306.961716 1313.749517 C306.963633 1316.115805 306.981467 1318.561391 307.935784 1320.726709 C308.890101 1322.892027 311.045726 1324.714456 313.403015 1324.508282 C324.110818 1323.571756 334.946129 1325.267000 345.619239 1323.994664 C356.292349 1322.722327 367.543749 1317.488915 371.498590 1307.494249 z"/><path class="selected"  fill="#000000" opacity="1.000000" stroke="none" 
 	d="
M399.944223 1533.463421 C414.798730 1533.338004 429.653238 1533.212588 444.507745 1533.087171 C449.483916 1533.045157 454.613836 1533.031221 459.219091 1534.916871 C463.985789 1536.868626 467.718384 1540.660635 471.308364 1544.354252 C520.817170 1595.292306 570.325978 1646.230360 619.834785 1697.168414 C622.045364 1699.442809 626.195177 1698.299172 628.061285 1695.734571 C629.927394 1693.169970 630.144579 1689.799072 630.279508 1686.630265 C631.677432 1653.800055 631.538390 1620.904442 629.862988 1588.087222 C629.083644 1572.821686 626.119748 1554.723469 612.245480 1548.308747 C607.011485 1545.888827 601.062052 1545.665735 595.479091 1544.223079 C589.896129 1542.780424 584.106354 1539.447544 582.671142 1533.862664 C593.962419 1533.775587 605.253696 1533.688510 616.544973 1533.601434 C635.769838 1533.453174 654.994703 1533.304915 674.219568 1533.156656 C675.068271 1533.150111 675.945094 1533.148924 676.725549 1533.482434 C679.310237 1534.586944 679.086245 1538.638085 677.081039 1540.607781 C675.075832 1542.577478 672.142828 1543.160687 669.497163 1544.109908 C659.726834 1547.615338 652.946554 1556.919403 649.830118 1566.820676 C646.713682 1576.721948 646.708407 1587.295399 646.731177 1597.675517 C646.852874 1653.150841 646.974569 1708.626164 647.096263 1764.101488 C647.103072 1767.205419 647.050733 1770.515761 645.327565 1773.097451 C643.604396 1775.679142 639.541661 1776.919456 637.356932 1774.714598 C577.621796 1714.429109 517.886661 1654.143619 458.151526 1593.858130 C457.001707 1592.697718 455.631567 1591.449202 454.002009 1591.564005 C451.298108 1591.754496 450.383521 1595.225885 450.204534 1597.930571 C447.852378 1633.474240 448.713165 1669.145712 449.811197 1704.750197 C450.218413 1717.954463 450.770759 1731.625563 456.640913 1743.460247 C462.511067 1755.294931 475.255864 1764.799103 488.278902 1762.581237 C493.584906 1761.677607 495.153173 1770.868840 490.765959 1773.986944 C486.378745 1777.105048 480.396170 1775.846479 475.126790 1774.749275 C455.720920 1770.708526 435.483616 1770.706376 416.076890 1774.742999 C412.026414 1775.585507 407.518799 1776.532478 403.983969 1774.382792 C400.449139 1772.233107 400.221446 1765.515718 404.299315 1764.817750 C415.244357 1762.944404 423.667413 1753.504435 427.522534 1743.090918 C431.377655 1732.677402 431.486489 1721.307828 431.549250 1710.203804 C431.766297 1671.802886 431.983343 1633.401967 432.200390 1595.001049 C432.254088 1585.500551 432.252653 1575.704197 428.613124 1566.928311 C424.225332 1556.348162 414.454080 1548.169665 403.266630 1545.713402 C400.507428 1545.107606 397.582556 1544.793330 395.211519 1543.257633 C392.840482 1541.721936 391.287869 1538.414443 392.774329 1536.012232 C394.171106 1533.754954 397.289832 1533.485831 399.944222 1533.463419 z"/><path class="selected"  fill="#000000" opacity="1.000000" stroke="none" 
 	d="
M1342.743030 1764.254268 C1347.196596 1764.697950 1347.331018 1772.036181 1343.583933 1774.483721 C1339.836847 1776.931260 1334.922110 1775.998887 1330.530461 1775.136033 C1307.604541 1770.631621 1283.819062 1770.544219 1260.860660 1774.880018 C1256.530310 1775.697825 1251.904698 1776.644839 1247.843564 1774.933718 C1243.782430 1773.222598 1241.152899 1767.558885 1244.084621 1764.268634 C1246.088379 1762.019832 1249.492528 1761.948137 1252.400108 1761.161921 C1258.832313 1759.422639 1263.506661 1753.583240 1265.652335 1747.274955 C1267.798009 1740.966670 1267.830633 1734.163718 1267.841142 1727.500516 C1267.916358 1679.806864 1267.991576 1632.113213 1268.066795 1584.419562 C1268.080681 1575.614430 1268.010856 1566.436437 1264.058069 1558.568400 C1259.906247 1550.304183 1251.465907 1544.347224 1242.288338 1543.203924 C1239.509473 1542.857746 1236.512932 1542.869051 1234.207488 1541.279442 C1231.902044 1539.689832 1231.126472 1535.644971 1233.577854 1534.291215 C1234.449316 1533.809957 1235.492736 1533.793058 1236.488241 1533.788032 C1275.173061 1533.592729 1313.857880 1533.397426 1352.542700 1533.202123 C1360.352169 1533.162696 1368.189359 1533.124891 1375.934724 1534.124235 C1401.976461 1537.484263 1427.229335 1554.705003 1434.651052 1579.891904 C1442.560865 1606.735253 1426.597017 1638.357986 1400.301937 1647.933954 C1394.533602 1650.034627 1396.602118 1658.653315 1399.709206 1663.947890 C1413.387447 1687.256034 1427.065688 1710.564179 1440.743928 1733.872324 C1444.677889 1740.575915 1448.783674 1747.473270 1455.059267 1752.059238 C1461.334861 1756.645207 1470.415695 1758.333352 1476.848160 1753.970147 C1479.281787 1754.191399 1480.744360 1757.095758 1480.276476 1759.494210 C1479.808592 1761.892662 1478.006953 1763.791334 1476.160803 1765.392339 C1461.569506 1778.046099 1438.690307 1780.000970 1422.163833 1770.006012 C1413.590652 1764.821084 1406.949563 1756.996129 1401.057282 1748.892801 C1393.335545 1738.273522 1386.615707 1726.926057 1381.016034 1715.050117 C1374.177317 1700.546377 1368.772093 1684.891250 1357.846432 1673.154281 C1346.920771 1661.417311 1328.151974 1654.862575 1314.611679 1663.452506 C1312.167098 1665.003344 1311.900144 1668.402849 1311.895501 1671.297852 C1311.867114 1689.004144 1311.838725 1706.710435 1311.810335 1724.416726 C1311.793485 1734.925811 1312.142409 1746.458740 1319.091285 1754.342537 C1324.881230 1760.911476 1334.029769 1763.386219 1342.743030 1764.254269 M1338.913664 1644.448136 C1348.282197 1644.529396 1357.792893 1644.593065 1366.827107 1642.111335 C1375.861321 1639.629604 1384.517358 1634.225533 1388.780543 1625.882796 C1391.780530 1620.012046 1392.382883 1613.211678 1392.277750 1606.619670 C1392.007532 1589.676517 1386.795755 1571.933640 1374.086177 1560.726050 C1363.626393 1551.502376 1349.231164 1547.742346 1335.285669 1547.662220 C1327.053576 1547.614921 1317.522813 1549.601109 1313.782702 1556.934673 C1311.949939 1560.528335 1311.910493 1564.736375 1311.910785 1568.770407 C1311.912328 1590.019399 1311.913870 1611.268391 1311.915412 1632.517383 C1311.915643 1635.705076 1312.039280 1639.223658 1314.211445 1641.556699 C1316.565543 1644.085146 1320.433889 1644.287847 1323.888440 1644.317811 C1328.896848 1644.361253 1333.905256 1644.404694 1338.913664 1644.448136 z"/><path class="selected"  fill="#000000" opacity="1.000000" stroke="none" 
 	d="
M1163.311159 1676.611568 C1163.913776 1681.621920 1163.502973 1688.434353 1158.561894 1689.460273 C1155.412319 1690.114224 1152.382435 1687.565596 1151.047028 1684.639137 C1149.711621 1681.712678 1149.531319 1678.407436 1148.703383 1675.299061 C1145.917248 1664.838878 1135.886006 1657.576219 1125.385262 1654.947095 C1114.884517 1652.317972 1103.853169 1653.487151 1093.093385 1654.672465 C1088.200883 1655.211430 1082.775761 1656.031084 1079.708407 1659.880551 C1077.110685 1663.140641 1076.972313 1667.657422 1076.950566 1671.825860 C1076.865303 1688.168478 1076.780041 1704.511097 1076.694778 1720.853715 C1076.635924 1732.134380 1077.752383 1745.572939 1087.557079 1751.151900 C1090.776906 1752.984009 1094.521126 1753.640541 1098.200072 1754.075585 C1135.220550 1758.453340 1174.016197 1741.822056 1196.371516 1711.990525 C1197.846426 1710.022367 1201.230432 1710.699726 1202.677863 1712.688180 C1204.125294 1714.676633 1204.148883 1717.340284 1203.963710 1719.792776 C1202.738618 1736.018130 1194.626719 1751.610752 1182.043684 1761.927250 C1169.460649 1772.243748 1152.580359 1777.141563 1136.429668 1775.162153 C1099.666983 1770.656561 1062.345170 1770.732215 1025.601054 1775.386810 C1021.111078 1775.955583 1016.075497 1776.453934 1012.510601 1773.665583 C1008.945705 1770.877232 1009.610612 1763.548531 1014.131281 1763.331887 C1022.172027 1762.946554 1028.851980 1756.370359 1031.844678 1748.897354 C1034.837377 1741.424348 1034.881288 1733.145755 1034.883242 1725.095783 C1034.894372 1679.225861 1034.905503 1633.355940 1034.916635 1587.486019 C1034.918732 1578.841473 1034.886135 1569.989808 1031.931519 1561.865867 C1028.976902 1553.741927 1022.459827 1546.355911 1013.946992 1544.852647 C1008.900360 1543.961474 1003.327927 1545.099522 998.882869 1542.549201 C994.437812 1539.998880 994.577120 1531.104233 999.688154 1531.478397 C1053.875629 1535.445323 1108.336607 1535.671737 1162.555189 1532.155496 C1170.112569 1531.665376 1179.227884 1531.848059 1183.233676 1538.275177 C1185.248337 1541.507624 1185.347879 1545.534340 1185.386904 1549.343019 C1185.492860 1559.684414 1185.598818 1570.025808 1185.704775 1580.367203 C1185.760428 1585.798937 1176.694509 1586.013921 1173.497013 1581.622697 C1170.299517 1577.231472 1170.428209 1571.259193 1168.193802 1566.308005 C1162.859822 1554.488517 1147.126531 1552.668808 1134.159762 1552.548183 C1120.494595 1552.421062 1106.829428 1552.293941 1093.164261 1552.166819 C1089.237258 1552.130288 1084.960926 1552.208938 1081.905258 1554.675835 C1078.096047 1557.751079 1077.629909 1563.285444 1077.486233 1568.178967 C1076.973359 1585.647226 1076.708842 1603.122776 1076.692792 1620.598555 C1076.688700 1625.053282 1076.878279 1629.977363 1079.940117 1633.213063 C1082.801888 1636.237334 1087.311559 1636.858656 1091.451283 1637.304337 C1101.162058 1638.349795 1111.017295 1639.392019 1120.651546 1637.787858 C1130.285797 1636.183698 1139.840539 1631.569609 1145.267047 1623.448948 C1147.928982 1619.465413 1149.696248 1614.590649 1153.721539 1611.992289 C1157.746830 1609.393929 1164.933401 1611.702627 1164.218168 1616.440019 C1161.214518 1636.334872 1160.908517 1656.635222 1163.311159 1676.611568 z"/><path class="selected"  fill="#000000" opacity="1.000000" stroke="none" 
 	d="
M146.746170 1535.571874 C159.982204 1538.107064 173.198251 1542.691271 183.401811 1551.495086 C196.880417 1563.124667 203.797871 1581.904963 201.083382 1599.499039 C198.368894 1617.093115 186.112833 1632.915240 169.755901 1639.941670 C191.890286 1644.686355 210.933815 1661.825540 217.975773 1683.339582 C225.017731 1704.853625 219.794101 1729.935915 204.749085 1746.850131 C184.266194 1769.877827 150.490082 1775.460657 119.681598 1774.647697 C88.873114 1773.834737 57.687161 1768.126578 27.505868 1774.364617 C24.177185 1775.052609 20.737668 1775.885730 17.422618 1775.134800 C14.107567 1774.383870 10.991267 1771.453106 11.343584 1768.072377 C11.883144 1762.894926 18.702833 1761.734507 23.300633 1759.293740 C32.776337 1754.263511 33.979930 1741.411644 33.980406 1730.683543 C33.982589 1681.475975 33.984773 1632.268407 33.986956 1583.060839 C33.987281 1575.739227 33.965294 1568.271435 31.675056 1561.317241 C29.384819 1554.363046 24.398499 1547.882748 17.399762 1545.732471 C12.480501 1544.221089 6.784534 1544.851599 2.578625 1541.886178 C-1.627285 1538.920756 -0.488584 1529.971158 4.544774 1531.042931 C51.060777 1540.947783 100.036408 1526.625225 146.746169 1535.571873 M176.078392 1720.009505 C179.119442 1706.391802 177.605865 1691.309143 169.647240 1679.848336 C162.793357 1669.978407 151.780439 1663.587064 140.251503 1660.199615 C128.722568 1656.812166 116.587313 1656.157520 104.576976 1655.779381 C95.422104 1655.491143 84.445017 1656.327749 79.952107 1664.309509 C77.767403 1668.190695 77.751534 1672.878450 77.792776 1677.332079 C77.918114 1690.866703 78.043452 1704.401327 78.168790 1717.935951 C78.271714 1729.050206 78.844569 1741.361469 86.626294 1749.297589 C93.492746 1756.300275 104.086508 1757.853462 113.881790 1758.341526 C130.796459 1759.184324 149.236517 1757.428865 161.822422 1746.096992 C169.305933 1739.359124 173.883693 1729.837277 176.078391 1720.009506 M110.790008 1639.525686 C125.080839 1639.779266 141.522081 1639.075289 150.412069 1627.883315 C153.292781 1624.256667 155.036663 1619.843995 156.168914 1615.352994 C160.239736 1599.206336 156.417271 1581.261336 146.119596 1568.175313 C135.821920 1555.089289 119.278909 1547.154363 102.627766 1547.314270 C93.467148 1547.402241 83.173885 1550.794131 79.576111 1559.219134 C77.962634 1562.997458 77.948672 1567.238561 77.960327 1571.346954 C78.002375 1586.168532 78.044423 1600.990111 78.086470 1615.811690 C78.110384 1624.241187 79.258318 1634.505198 86.958623 1637.934817 C89.647948 1639.132603 92.683853 1639.204406 95.627391 1639.256637 C100.681597 1639.346320 105.735802 1639.436003 110.790008 1639.525686 z"/><path class="selected"  fill="#000000" opacity="1.000000" stroke="none" 
 	d="
M361.814197 1762.749540 C367.063564 1762.936257 367.484743 1771.677111 363.085421 1774.547071 C358.686099 1777.417031 352.914122 1776.224858 347.769598 1775.164397 C328.193468 1771.129096 307.908599 1770.556701 288.136065 1773.481671 C278.467085 1774.912012 267.592575 1776.900033 259.726327 1771.098551 C258.866081 1764.546290 268.058861 1762.492183 273.710332 1759.066841 C282.912675 1753.489332 283.950631 1740.783076 283.954472 1730.022421 C283.971789 1681.507966 283.989107 1632.993511 284.006424 1584.479057 C284.010101 1574.177057 283.727699 1563.007437 277.335570 1554.928335 C270.217451 1545.931645 257.786625 1543.537887 246.453312 1541.759103 C243.702935 1541.327428 243.356207 1537.024296 245.408037 1535.142566 C247.459868 1533.260837 250.532256 1533.171399 253.316257 1533.187346 C284.954135 1533.368580 316.592013 1533.549813 348.229890 1533.731046 C351.868998 1533.751892 352.404513 1539.605405 349.732454 1542.075960 C347.060396 1544.546514 343.120890 1544.931512 339.816526 1546.456213 C329.426924 1551.250183 327.943005 1565.148684 327.938456 1576.590972 C327.918819 1626.003302 327.899180 1675.415631 327.879541 1724.827960 C327.875857 1734.096202 328.107253 1744.101309 333.709255 1751.484933 C340.019645 1759.802225 351.380564 1762.378422 361.814194 1762.749539 z"/><path class="selected"  fill="#000000" opacity="1.000000" stroke="none" 
 	d="
M750.078162 1428.857772 C749.336766 1429.127674 748.528018 1429.124759 747.739046 1429.118609 C727.849539 1428.963561 707.960032 1428.808514 688.070525 1428.653467 C686.219964 1423.699645 693.801745 1421.159454 697.531924 1417.411027 C700.231483 1414.698262 700.986636 1410.656070 701.517398 1406.865950 C702.939955 1396.707604 703.682756 1386.454122 703.739189 1376.196809 C703.817686 1361.929091 702.163196 1346.622504 692.959482 1335.719953 C683.755769 1324.817403 664.678205 1321.468367 655.569482 1332.450403 C650.004671 1339.159679 649.742507 1348.659076 649.747857 1357.375810 C649.755910 1370.497308 649.763964 1383.618806 649.772017 1396.740304 C649.776084 1403.367139 650.344324 1411.108648 655.861080 1414.780209 C659.268708 1417.048084 663.809168 1417.112958 667.148303 1419.480521 C670.487439 1421.848084 670.581302 1428.681122 666.488108 1428.711885 C648.076386 1428.850265 629.664664 1428.988644 611.252942 1429.127023 C607.117959 1429.158100 602.483392 1428.989814 599.619721 1426.006789 C602.075843 1419.931367 610.941663 1419.601532 615.135491 1414.566156 C617.979614 1411.151324 618.101243 1406.302256 618.084741 1401.858176 C618.012972 1382.529727 617.941203 1363.201278 617.869434 1343.872828 C617.853925 1339.695910 617.398704 1334.726627 613.754460 1332.685459 C611.386053 1331.358896 608.464131 1331.795409 605.785401 1331.355496 C603.106671 1330.915584 600.177187 1328.636051 600.966704 1326.038787 C601.510286 1324.250569 603.502985 1323.406091 605.267254 1322.789195 C619.553007 1317.794026 633.838758 1312.798856 648.124509 1307.803687 C649.293439 1313.707229 650.462369 1319.610772 651.631298 1325.514314 C667.841034 1311.111814 692.285627 1301.621925 711.031428 1312.520663 C721.102040 1318.375679 727.532550 1329.165988 730.612792 1340.400334 C733.693035 1351.634680 733.815473 1363.437688 733.917399 1375.086208 C734.023012 1387.156280 734.128626 1399.226351 734.234240 1411.296422 C734.263031 1414.586715 737.673728 1416.797047 740.852788 1417.645832 C744.031848 1418.494617 747.552514 1418.704328 750.129481 1420.750324 C752.706447 1422.796321 753.170069 1427.732175 750.078161 1428.857771 z"/><path class="selected"  fill="#000000" opacity="1.000000" stroke="none" 
 	d="
M1271.748252 1313.534968 C1271.837385 1295.801678 1271.926518 1278.068389 1272.015652 1260.335100 C1272.036050 1256.276873 1271.821032 1251.671911 1268.746588 1249.022870 C1263.959564 1244.898215 1253.310158 1245.803675 1253.954149 1239.517685 C1268.441645 1234.528244 1282.929141 1229.538803 1297.416638 1224.549362 C1299.804326 1223.727050 1303.595560 1223.815654 1303.581960 1226.340940 C1303.278192 1282.710296 1302.974429 1339.079646 1302.670667 1395.448997 C1302.634851 1402.095289 1303.619822 1410.326416 1309.834015 1412.684017 C1312.081710 1413.536770 1314.597437 1413.370868 1316.895666 1414.076178 C1319.193895 1414.781489 1321.422640 1417.001356 1320.739239 1419.306195 C1320.140074 1421.326939 1317.764786 1422.130014 1315.718356 1422.634519 C1304.838647 1425.316684 1293.958939 1427.998849 1283.079230 1430.681014 C1281.139028 1431.159330 1279.104129 1431.638520 1277.166268 1431.150806 C1271.246744 1429.661001 1270.938900 1421.445489 1271.955050 1415.426542 C1258.168451 1424.663113 1242.607669 1433.716923 1226.108608 1431.937726 C1210.136307 1430.215332 1196.481450 1417.988486 1190.338784 1403.144338 C1184.196119 1388.300191 1184.777378 1371.333886 1189.043533 1355.845794 C1191.097991 1348.387170 1193.997955 1341.111112 1198.220456 1334.628646 C1213.394174 1311.333661 1246.532827 1301.826833 1271.748252 1313.534967 M1269.996871 1404.000660 C1271.861389 1400.562904 1271.930522 1396.470364 1271.955181 1392.559610 C1272.035706 1379.788736 1272.116232 1367.017862 1272.196758 1354.246987 C1272.240160 1347.363819 1272.211959 1340.167123 1269.042686 1334.056836 C1266.352306 1328.869840 1261.568611 1324.957163 1256.226932 1322.588716 C1243.316960 1316.864562 1226.561140 1320.757913 1218.219432 1332.153053 C1215.962284 1335.236410 1214.322209 1338.740235 1213.111986 1342.364755 C1208.523129 1356.108012 1210.157244 1371.328609 1214.935967 1385.007005 C1217.731846 1393.009801 1221.742177 1400.862823 1228.210923 1406.341600 C1237.173055 1413.932179 1250.528580 1415.896978 1261.297062 1411.209071 C1264.815069 1409.677556 1268.167593 1407.373441 1269.996871 1404.000661 z"/><path class="selected"  fill="#000000" opacity="1.000000" stroke="none" 
 	d="
M885.205521 1402.587692 C884.343223 1408.835538 879.112881 1413.496066 873.902839 1417.050583 C860.634162 1426.103044 844.858919 1431.919292 828.797080 1431.770465 C812.735242 1431.621638 796.477638 1425.106135 786.051274 1412.887472 C779.553777 1405.273052 775.494526 1395.760443 773.564837 1385.938370 C769.768184 1366.613483 774.423268 1345.555809 786.910315 1330.326250 C799.397362 1315.096690 819.721361 1306.330905 839.260881 1308.795249 C858.800400 1311.259594 876.680755 1325.356085 882.634897 1344.128778 C884.507206 1350.031940 884.602885 1357.774535 879.320679 1361.007359 C876.733989 1362.590465 873.520159 1362.611178 870.487593 1362.584281 C851.715007 1362.417774 832.942421 1362.251268 814.169834 1362.084762 C811.005752 1362.056697 807.340855 1362.265423 805.468336 1364.816085 C804.505768 1366.127254 804.238551 1367.812966 804.093763 1369.433070 C802.636689 1385.737002 811.601217 1402.507151 825.967456 1410.352688 C840.333694 1418.198226 859.288390 1416.675027 872.217429 1406.636041 C876.078844 1403.637776 881.199743 1399.785218 885.205521 1402.587691 M805.768066 1349.316569 C807.431827 1350.271757 809.449735 1350.301318 811.368189 1350.305557 C822.277076 1350.329660 833.185963 1350.353763 844.094850 1350.377865 C847.024275 1350.384338 850.201976 1350.309188 852.498963 1348.491106 C856.171328 1345.584403 855.689144 1339.793209 853.730739 1335.538817 C849.251555 1325.808352 838.570668 1319.293068 827.869086 1319.763348 C817.167504 1320.233629 807.099313 1327.660728 803.490958 1337.746599 C802.050221 1341.773659 802.058866 1347.187067 805.768065 1349.316570 z"/><path class="selected"  fill="#000000" opacity="1.000000" stroke="none" 
 	d="
M796.674074 545.436441 C806.300501 445.690941 796.479269 344.105225 767.923087 248.051192 C703.727700 239.243823 637.899913 253.480340 573.878881 243.484089 C509.857850 233.487838 442.551656 185.084625 446.918472 120.435198 C416.024648 131.439580 378.794003 129.459510 353.754030 108.281111 C328.714058 87.102713 322.011368 44.598318 344.766679 20.982209 C363.711402 1.320835 394.234946 0.023561 421.538283 0.022827 C704.878548 0.015219 988.218811 0.007610 1271.559075 0.000000 C1298.761248 -0.000730 1329.164687 1.285523 1348.059432 20.854550 C1370.777158 44.382984 1364.157892 86.756278 1339.258152 107.962061 C1314.358412 129.167844 1277.287521 131.343620 1246.373271 120.666944 C1249.446116 185.887730 1181.663009 233.989703 1117.123994 243.884590 C1052.584980 253.779477 986.420983 239.214152 921.553092 246.653907 C923.917442 261.740964 922.542784 277.399761 917.585925 291.844102 C889.663260 373.211019 882.007652 461.447936 895.499457 546.408054 C967.482069 605.858034 1069.675742 607.076216 1157.548432 638.606943 C1258.679439 674.895056 1339.408904 751.004794 1420.438306 821.563591 C1446.547421 844.298892 1474.511473 867.414830 1508.387469 874.556029 C1542.263465 881.697228 1583.372550 866.919234 1593.996768 833.969184 C1597.490796 823.132790 1597.720612 810.776739 1604.793657 801.854431 C1583.805092 770.361657 1610.512064 720.088989 1648.357265 719.851212 C1686.202467 719.613435 1713.539020 769.546554 1692.947807 801.300573 C1714.267390 848.240316 1714.584165 901.632100 1714.523917 953.186543 C1714.353025 1099.418411 1714.182134 1245.650280 1714.011242 1391.882148 C1713.965889 1430.691049 1708.157560 1478.494032 1672.043094 1492.702416 C1642.311699 1504.399533 1607.803196 1483.355074 1593.328379 1454.872481 C1578.853562 1426.389889 1579.220461 1392.946229 1579.911401 1361.004078 C1581.597676 1283.047506 1583.283952 1205.090935 1584.970228 1127.134363 C1105.179899 1127.212768 625.389571 1127.291172 145.599243 1127.369577 C140.634527 1196.010438 143.492070 1264.960669 147.179552 1333.681981 C149.036711 1368.292725 150.745609 1404.742324 135.199697 1435.720983 C119.653785 1466.699641 80.266624 1488.622566 49.438868 1472.779520 C17.462464 1456.346161 13.251816 1413.148795 13.211868 1377.196829 C13.031378 1214.760945 12.850887 1052.325062 12.670395 889.889179 C12.634934 857.975627 15.106452 820.931101 41.175130 802.521862 C18.448065 771.797459 43.973129 719.726087 82.180165 718.871201 C120.387201 718.016316 148.215755 768.893897 126.885669 800.604082 C141.077798 821.764007 147.107618 848.253839 143.472374 873.471768 C202.022877 885.134648 254.627113 839.356520 298.620035 798.998039 C378.867808 725.379873 468.150301 657.160011 572.655635 626.533641 C649.769954 603.934492 737.791326 600.118812 796.674074 545.436441 M981.603847 1085.237928 C1170.159651 1085.257341 1358.715455 1085.276754 1547.271259 1085.296167 C1559.567382 1085.297433 1572.053668 1085.324188 1583.871948 1088.718727 C1583.207422 1079.777477 1582.542896 1070.836228 1581.878370 1061.894978 C1541.054679 1071.841136 1497.524486 1070.424920 1457.433620 1057.846281 C1381.888621 1034.143792 1323.861393 974.087528 1254.104482 936.633180 C1153.187081 882.447935 1026.503627 879.199386 922.941737 928.141161 C913.673634 932.521125 902.977392 940.901507 906.289820 950.602520 C908.221570 956.259929 899.973837 959.640414 893.996744 959.529957 C888.019651 959.419500 879.750249 960.813404 879.773618 966.791472 C879.858288 988.451244 879.942959 1010.111015 880.027630 1031.770785 C900.560881 1031.914069 921.094133 1032.057352 941.627384 1032.200636 C951.022610 1032.266197 961.026035 1032.509738 968.831892 1037.738808 C983.171823 1047.344993 983.170873 1068.049070 981.603847 1085.237928 M144.098895 1061.625588 C143.214422 1069.520879 143.665185 1077.564080 145.426296 1085.311106 C333.580676 1085.302111 521.735055 1085.293116 709.889435 1085.284121 C709.196258 1069.331647 709.420538 1051.081305 721.371583 1040.491949 C731.385725 1031.618806 746.145947 1031.405204 759.522948 1031.672708 C776.050959 1032.003225 792.578969 1032.333740 809.106979 1032.664256 C812.040690 1032.722922 812.991351 1028.773653 812.985410 1025.839361 C812.941707 1004.258194 812.898005 982.677027 812.854302 961.095860 C806.766523 961.610469 800.411696 962.087444 794.753569 959.782781 C789.095441 957.478117 784.444461 951.459568 785.833696 945.510122 C786.926706 940.829266 782.670856 936.765978 778.857347 933.839847 C761.957617 920.872621 744.407667 907.585133 723.722448 902.498735 C650.101213 884.395620 570.370326 892.234456 501.684302 924.328678 C453.336068 946.919866 411.207086 980.611021 366.620175 1009.935429 C322.033265 1039.259836 272.757225 1064.949422 219.490310 1068.197384 C194.248294 1069.736517 168.977803 1066.160804 144.098896 1061.625586 M816.870418 128.755613 C816.860831 127.109687 816.801459 125.319389 815.752439 124.051036 C814.405527 122.422508 811.999150 122.292113 809.885793 122.292158 C702.610818 122.294483 595.335843 122.296806 488.060869 122.299130 C485.295933 122.299189 482.010494 122.583615 480.635723 124.982547 C479.603561 126.783638 480.127166 129.041779 480.722220 131.030548 C492.095144 169.040734 522.877958 202.758849 561.953703 209.629348 C572.030476 211.401098 582.323754 211.403274 592.555100 211.400314 C655.100739 211.382222 717.646378 211.364131 780.192018 211.346039 C788.122414 211.343745 796.293836 211.295612 803.615479 208.248527 C810.937122 205.201441 817.275902 198.365204 817.229712 190.434941 C817.109944 169.875162 816.990181 149.315388 816.870419 128.755613 M875.996394 127.892173 C875.935066 149.243137 875.873739 170.594101 875.812411 191.945065 C875.791336 199.282182 881.663245 205.594023 888.439259 208.408160 C895.215272 211.222296 902.774598 211.266585 910.111745 211.268699 C976.708249 211.287880 1043.304752 211.307064 1109.901255 211.326249 C1117.700486 211.328496 1125.552803 211.326072 1133.219485 209.894288 C1142.515351 208.158248 1151.333440 204.347378 1159.478787 199.543185 C1185.132020 184.412694 1204.436170 158.871366 1211.992042 130.062880 C1212.620768 127.665721 1212.968005 124.635131 1210.981165 123.153870 C1209.878307 122.331652 1208.396102 122.298106 1207.020480 122.298118 C1098.572112 122.299047 990.123744 122.299975 881.675377 122.300904 C880.064017 122.300918 878.263783 122.376687 877.142522 123.533948 C876.069489 124.641433 876.000823 126.350127 875.996393 127.892173 z"/><path class="selected"  fill="#000000" opacity="1.000000" stroke="none" 
 	d="
M931.073259 1382.962910 C915.888237 1377.952769 906.988312 1360.170307 909.891474 1344.445865 C912.794636 1328.721424 925.779430 1315.953588 940.938275 1310.864793 C956.097120 1305.775998 972.971071 1307.629094 987.878340 1313.413532 C992.589945 1315.241767 997.243180 1317.472855 1002.265140 1318.039932 C1007.287100 1318.607008 1012.925951 1317.117312 1015.731342 1312.913571 C1017.251379 1310.635870 1017.790039 1307.816327 1019.294520 1305.528322 C1020.799001 1303.240316 1024.040936 1301.598502 1026.253079 1303.212458 C1027.693842 1304.263622 1028.071051 1306.231866 1028.186763 1308.011572 C1028.802048 1317.474964 1024.960598 1327.133721 1018.013950 1333.589605 C1014.718416 1336.652317 1015.339836 1341.881277 1015.334380 1346.380246 C1015.315133 1362.262387 1003.789117 1376.584284 989.415309 1383.339755 C975.041501 1390.095226 958.380602 1390.331265 942.700017 1387.808965 C936.702473 1386.844230 931.616236 1393.860474 932.906047 1399.796602 C934.195858 1405.732731 939.922108 1409.848798 945.832055 1411.253707 C951.742001 1412.658616 957.916285 1411.920045 963.976352 1411.499545 C972.781941 1410.888529 981.635357 1410.968123 990.428533 1411.737350 C1001.107801 1412.671573 1012.520104 1415.055892 1019.746405 1422.974232 C1029.688766 1433.868737 1027.661876 1452.117592 1018.316844 1463.528603 C1008.971813 1474.939614 994.226466 1480.565738 979.708094 1483.165287 C967.780643 1485.300925 955.552307 1485.719124 943.498928 1484.477721 C934.371494 1483.537667 924.994975 1481.495890 917.713750 1475.912207 C910.432524 1470.328525 905.822803 1460.433955 908.742466 1451.735144 C911.531143 1443.426595 919.916247 1438.557514 927.648631 1434.432116 C918.966740 1429.601034 915.236471 1418.447474 916.813036 1408.637833 C918.389602 1398.828193 924.311967 1390.242987 931.073259 1382.962910 M971.444164 1319.205417 C968.225841 1318.010553 964.720591 1317.853974 961.288246 1317.919632 C957.596020 1317.990262 953.823483 1318.323909 950.455372 1319.838290 C942.734843 1323.309621 938.873137 1332.172500 937.804522 1340.569807 C936.705028 1349.209771 937.848788 1358.125552 941.093542 1366.208214 C942.956107 1370.847851 945.734883 1375.444264 950.180859 1377.730894 C953.700452 1379.541072 957.821539 1379.679629 961.778507 1379.597906 C965.309410 1379.524981 968.910211 1379.291686 972.189035 1377.979474 C977.633137 1375.800701 981.601540 1370.804193 983.652261 1365.310575 C985.702982 1359.816957 986.042899 1353.835874 985.911886 1347.973440 C985.784288 1342.263824 985.206023 1336.462162 983.007885 1331.191093 C980.809747 1325.920023 976.798117 1321.193175 971.444165 1319.205417 M1003.169084 1453.564104 C1001.832181 1445.996700 993.144668 1442.443153 985.623567 1440.866458 C971.580541 1437.922531 957.081040 1437.166660 942.808028 1438.634450 C941.067057 1438.813486 939.286178 1439.038183 937.731486 1439.841904 C935.960874 1440.757248 934.629728 1442.356033 933.625739 1444.077930 C929.980870 1450.329081 930.444278 1458.733912 934.754290 1464.546464 C941.005063 1472.976359 952.839646 1474.598403 963.333725 1474.696300 C973.124515 1474.787637 983.215553 1474.092757 992.034410 1469.838861 C998.399655 1466.768499 1004.398556 1460.523406 1003.169084 1453.564106 z"/><path class="selected"  fill="#000000" opacity="1.000000" stroke="none" 
 	d="
M1122.112774 1350.628849 C1121.383414 1339.727648 1117.700200 1328.009181 1108.460536 1322.178508 C1099.220872 1316.347834 1083.944604 1320.631677 1082.531675 1331.465502 C1081.267739 1341.156890 1069.861761 1348.074258 1060.683474 1344.715750 C1058.690376 1343.986439 1056.783265 1342.808677 1055.632718 1341.025260 C1053.065129 1337.045343 1055.083332 1331.678563 1057.963244 1327.918463 C1064.683055 1319.144877 1075.356058 1314.339533 1085.966448 1311.249017 C1105.426727 1305.580770 1129.339166 1305.795760 1142.608062 1321.117896 C1153.592684 1333.802288 1153.574161 1352.335728 1152.969062 1369.104435 C1152.672505 1377.322700 1152.375949 1385.540965 1152.079393 1393.759230 C1151.883284 1399.193867 1151.750662 1404.920237 1154.308643 1409.719245 C1156.866623 1414.518252 1163.123654 1417.801174 1167.905782 1415.211775 C1170.064366 1414.042958 1172.581824 1416.962321 1172.029537 1419.354097 C1171.477251 1421.745874 1169.235329 1423.307632 1167.133411 1424.575526 C1161.506480 1427.969729 1155.400450 1431.016710 1148.837418 1431.347715 C1142.274387 1431.678719 1135.163985 1428.678220 1132.385574 1422.723106 C1130.462018 1418.600246 1125.178075 1417.004236 1120.695543 1417.782014 C1116.213010 1418.559791 1112.289134 1421.138747 1108.363976 1423.439001 C1100.645676 1427.962149 1092.205422 1431.657249 1083.282192 1432.295193 C1074.358961 1432.933137 1064.863062 1430.131546 1058.959549 1423.409974 C1048.312696 1411.287769 1053.476572 1391.024270 1065.584343 1380.361007 C1077.692114 1369.697744 1094.358961 1366.224677 1110.254750 1363.462944 C1114.325549 1362.755684 1118.917096 1361.727066 1120.998036 1358.157569 C1122.295649 1355.931737 1122.284771 1353.199557 1122.112774 1350.628849 M1121.206280 1404.875532 C1122.037963 1402.640455 1122.036297 1400.194512 1122.024319 1397.809744 C1121.985236 1390.028531 1121.946154 1382.247318 1121.907071 1374.466105 C1121.902435 1373.543024 1121.871052 1372.541024 1121.290058 1371.823705 C1120.469319 1370.810387 1118.950304 1370.806131 1117.651301 1370.920216 C1109.881020 1371.602655 1102.033036 1373.433413 1095.501353 1377.697224 C1088.969669 1381.961034 1083.906015 1388.948612 1083.353775 1396.729229 C1082.801535 1404.509846 1087.532600 1412.755547 1095.008923 1414.979858 C1099.637081 1416.356802 1104.636752 1415.417007 1109.237936 1413.952450 C1114.182369 1412.378637 1119.396696 1409.738628 1121.206279 1404.875531 z"/><path class="selected"  fill="#000000" opacity="1.000000" stroke="none" 
 	d="
M1443.624683 1362.408158 C1422.940305 1362.334227 1402.255927 1362.260297 1381.571549 1362.186366 C1379.268264 1362.178133 1376.728413 1362.256527 1375.029371 1363.811661 C1373.467777 1365.240989 1373.070096 1367.523112 1372.919913 1369.634747 C1371.666474 1387.258687 1382.537062 1405.103955 1398.772406 1412.074462 C1415.007751 1419.044969 1435.432895 1414.636257 1447.347598 1401.589639 C1449.438585 1399.300006 1453.625358 1402.088215 1453.559487 1405.188264 C1453.493615 1408.288313 1450.988219 1410.729408 1448.581611 1412.684628 C1436.278803 1422.679895 1421.411494 1429.873088 1405.650635 1431.564177 C1389.889776 1433.255265 1373.258750 1429.097786 1361.175045 1418.838715 C1342.111998 1402.654179 1337.477814 1373.632809 1345.575128 1349.973298 C1348.729242 1340.757303 1353.618202 1332.052967 1360.420692 1325.080943 C1372.855267 1312.336468 1391.664452 1306.148190 1409.236916 1309.020260 C1426.809381 1311.892330 1442.669595 1323.747026 1450.399561 1339.787223 C1452.449903 1344.041815 1453.976735 1348.805029 1453.112308 1353.448112 C1452.247881 1358.091195 1448.347524 1362.425039 1443.624690 1362.408162 M1422.734626 1335.571620 C1418.187322 1325.371176 1406.750774 1318.698818 1395.633177 1319.759980 C1384.515580 1320.821142 1374.547774 1329.536523 1372.012240 1340.413015 C1371.232659 1343.757122 1371.520872 1348.036978 1374.577654 1349.601228 C1375.846632 1350.250602 1377.333465 1350.267181 1378.758943 1350.269644 C1391.650911 1350.291920 1404.542879 1350.314196 1417.434847 1350.336472 C1420.550098 1350.341854 1423.216391 1347.669464 1423.994610 1344.652977 C1424.772829 1341.636490 1424.003060 1338.416950 1422.734628 1335.571621 z"/><path class="selected"  fill="#000000" opacity="1.000000" stroke="none" 
 	d="
M570.689497 1360.771203 C567.872999 1362.552610 564.331592 1362.581496 560.999129 1362.553861 C542.235287 1362.398253 523.471446 1362.242647 504.707605 1362.087041 C501.690361 1362.062019 498.204597 1362.256079 496.395715 1364.671101 C495.424738 1365.967446 495.167038 1367.652241 495.031916 1369.266257 C493.551314 1386.951909 504.343483 1405.003388 520.622991 1412.071066 C536.902499 1419.138744 557.459788 1414.697498 569.369735 1401.539701 C571.407875 1399.288018 575.523219 1401.983561 575.490399 1405.020503 C575.457579 1408.057445 573.033173 1410.476654 570.697936 1412.418499 C558.464170 1422.591374 543.527959 1429.848713 527.705147 1431.519354 C511.882334 1433.189994 495.209687 1428.938327 483.100109 1418.617932 C463.875826 1402.234026 459.250837 1372.837984 467.753159 1349.053201 C470.947609 1340.116901 475.803696 1331.700447 482.463853 1324.939955 C495.101121 1312.112307 514.226365 1306.033264 531.950796 1309.210311 C549.675227 1312.387358 565.498304 1324.730774 572.893318 1341.149143 C575.849549 1347.712545 576.773197 1356.923324 570.689502 1360.771204 M544.700920 1335.349022 C540.058917 1325.289762 528.726762 1318.751029 517.694707 1319.766247 C506.662652 1320.781465 496.714159 1329.278537 493.985965 1340.016035 C493.311908 1342.668952 493.140414 1345.767381 494.904395 1347.860391 C496.832442 1350.148068 500.232092 1350.324950 503.223885 1350.322618 C515.312453 1350.313192 527.401020 1350.303766 539.489588 1350.294341 C542.638769 1350.291885 545.321561 1347.568757 546.079584 1344.512166 C546.837607 1341.455575 546.020440 1338.208432 544.700922 1335.349023 z"/></svg>